<svg width="32" height="32" viewBox="0 0 32 32" fill="none" xmlns="http://www.w3.org/2000/svg">
    <path d="M0 10.81C0 4.84 4.84 0 10.81 0h10.38C27.16 0 32 4.84 32 10.81v10.38C32 27.16 27.16 32 21.19 32H10.81C4.84 32 0 27.16 0 21.19V10.81z" fill="#EFFDA6"/>
    <path d="M15.995 24.28a.879.879 0 0 0 .88-.88v-2.743a6.464 6.464 0 0 0 5.591-6.408v-.47a2.447 2.447 0 0 0-2.441-2.441h-.311l.116-2.335a.885.885 0 1 0-1.767-.096l-.117 2.425-3.867.006V8.8a.879.879 0 1 0-1.758 0v2.538h-.354a2.447 2.447 0 0 0-2.442 2.442l.001.47a6.462 6.462 0 0 0 5.59 6.407v2.744a.878.878 0 0 0 .88.879zm-4.712-10.031v-.47a.685.685 0 0 1 .683-.683h8.059a.685.685 0 0 1 .683.684l.002.47a4.713 4.713 0 1 1-9.427-.001z" fill="#393735"/>
</svg>
