<svg width="16" height="16" viewBox="0 0 16 16" fill="none" xmlns="http://www.w3.org/2000/svg">
    <path fill-rule="evenodd" clip-rule="evenodd" d="M3.834 14.187c0-.444.368-.806.822-.812h-.243c-.78 0-1.413-.618-1.413-1.379V9.315h10v2.681c0 .761-.633 1.38-1.413 1.38h-.241a.824.824 0 0 1 .823.811.825.825 0 0 1-.834.813.825.825 0 0 1-.835-.813c0-.444.368-.806.822-.812H4.68a.824.824 0 0 1 .823.812.825.825 0 0 1-.834.813.825.825 0 0 1-.835-.813zM3 8.501V5.81c0-.762.633-1.38 1.413-1.38h1.089v-1.21c0-.674.56-1.221 1.252-1.221h2.494c.691 0 1.252.547 1.252 1.222v1.21h1.087c.78 0 1.413.617 1.413 1.378V8.5H3zm6.667-4.07v-1.21a.416.416 0 0 0-.419-.408H6.754a.415.415 0 0 0-.419.409v1.21h3.332z" fill="#393735"/>
</svg>
