<svg width="154" height="88" viewBox="0 0 154 88" fill="none" xmlns="http://www.w3.org/2000/svg">
    <path d="M12.852 60.852c.57 0 1.081-.089 1.536-.266a3.635 3.635 0 0 0 1.148-.686c.312-.282.547-.605.707-.966.161-.36.24-.727.24-1.098 0-.721-.222-1.32-.666-1.799a6.346 6.346 0 0 0-1.656-1.24 23.335 23.335 0 0 0-2.15-1.006 15.021 15.021 0 0 1-2.178-1.098 6.053 6.053 0 0 1-1.695-1.52c-.455-.6-.69-1.358-.709-2.275-.018-.828.116-1.541.4-2.14.288-.6.691-1.09 1.217-1.47a5.574 5.574 0 0 1 1.857-.846 9.159 9.159 0 0 1 2.296-.277c.586 0 1.183.062 1.79.185a5.753 5.753 0 0 1 1.63.581c.48.265.871.608 1.175 1.031.301.425.453.935.453 1.535 0 .635-.218 1.16-.655 1.574-.436.415-1.001.622-1.696.622-.463-.038-.787-.156-.974-.361-.187-.203-.28-.357-.28-.465 0-.036.067-.075.199-.12.134-.044.281-.12.441-.226.16-.105.308-.253.44-.44.135-.184.2-.439.2-.758 0-.674-.257-1.19-.773-1.555-.517-.363-1.158-.546-1.924-.546-.587 0-1.09.077-1.51.225-.417.152-.76.347-1.027.587a2.159 2.159 0 0 0-.587.838 2.661 2.661 0 0 0-.188.983c0 .654.178 1.186.534 1.593.356.407.891.804 1.603 1.196.802.422 1.617.811 2.444 1.164.829.352 1.585.758 2.272 1.215a6.112 6.112 0 0 1 1.682 1.666c.436.653.654 1.5.654 2.541 0 .668-.165 1.29-.495 1.863a4.798 4.798 0 0 1-1.335 1.48c-.561.416-1.225.742-1.99.98a8.165 8.165 0 0 1-2.43.356c-1.87 0-3.299-.317-4.287-.952s-1.481-1.587-1.481-2.856c0-.635.217-1.16.653-1.573.436-.414 1.002-.622 1.696-.622.463.035.789.156.975.357.187.202.28.358.28.462 0 .037-.048.077-.146.12-.098.045-.21.118-.335.225a1.431 1.431 0 0 0-.334.435c-.098.185-.146.437-.146.756 0 .792.243 1.423.734 1.89.49.467 1.286.701 2.39.701zM28.545 54.955h5.61l-2.699-6.798h-.08l-2.83 6.798zm1.069-10.421c.552 0 1.038.041 1.455.121.419.078.794.215 1.12.409.332.194.63.476.897.847.267.368.526.847.773 1.428l4.489 10.948c.09.227.186.462.294.7.106.238.231.453.373.647.142.195.311.359.507.489.196.133.436.2.722.2.195 0 .352.019.468.054.115.035.181.202.199.502 0 .141-.04.271-.12.396a.4.4 0 0 1-.36.184 40.034 40.034 0 0 0-1.497-.067 73.755 73.755 0 0 0-4.753.067c-.178 0-.303-.06-.374-.184a.772.772 0 0 1-.107-.396c.017-.3.085-.467.2-.502.116-.035.271-.055.468-.055.427 0 .757-.04.988-.12.231-.08.379-.197.442-.354.06-.16.07-.367.026-.623a5.214 5.214 0 0 0-.282-.938l-.907-2.195h-6.597a116.6 116.6 0 0 0-.855 2.195 10.92 10.92 0 0 0-.293 1.083c-.054.264-.028.467.08.609.107.14.306.233.6.277.294.045.7.066 1.216.066.196 0 .352.02.468.055.114.035.183.202.2.502 0 .141-.041.271-.121.396-.08.124-.2.184-.36.184a40.268 40.268 0 0 0-1.483-.067 86.737 86.737 0 0 0-1.428-.012h-.695c-.197 0-.387.005-.575.012-.186.01-.382.02-.586.029-.206.007-.45.021-.735.038-.178 0-.303-.06-.374-.184a.79.79 0 0 1-.107-.396c.018-.3.085-.467.2-.502.116-.035.27-.055.468-.055.357 0 .645-.056.868-.17.224-.115.41-.27.56-.464.153-.194.281-.413.388-.662l.32-.739 4.674-10.948c.124-.319.168-.573.133-.769a.831.831 0 0 0-.253-.476 1.285 1.285 0 0 0-.507-.276 4.66 4.66 0 0 0-.628-.145c-.268-.053-.446-.101-.534-.146-.09-.044-.134-.199-.134-.463 0-.3.102-.463.307-.489.206-.027.46-.041.762-.041zM55.698 61.248a.367.367 0 0 1-.214.198.824.824 0 0 1-.321.067.825.825 0 0 1-.32-.067.496.496 0 0 1-.241-.198l-6.01-13.46h-.08l.054 10.5c0 .246.009.493.027.738.018.25.08.468.188.662.106.194.269.348.493.463.222.114.548.171.975.171.196 0 .351.02.466.054.116.036.193.203.229.503 0 .141-.04.271-.12.396a.403.403 0 0 1-.361.184c-.286-.017-.52-.032-.709-.038l-.533-.029a12.979 12.979 0 0 0-.52-.012h-1.376c-.206 0-.402.005-.589.012-.185.01-.386.02-.6.029-.214.007-.464.021-.748.038-.179 0-.303-.061-.373-.184a.773.773 0 0 1-.108-.396c.019-.3.084-.467.2-.503.117-.034.273-.053.468-.053.428 0 .751-.057.975-.172.221-.115.388-.27.494-.463.107-.194.169-.412.187-.662.017-.245.027-.492.027-.739l.053-10.498c0-.425-.037-.76-.106-1.006a1.259 1.259 0 0 0-.335-.584 1.589 1.589 0 0 0-.56-.328 4.697 4.697 0 0 0-.788-.198A4.382 4.382 0 0 1 45 45.54c-.096-.036-.146-.194-.146-.476 0-.3.101-.463.307-.489a5.69 5.69 0 0 1 .761-.041c.658 0 1.255.041 1.79.121a5.58 5.58 0 0 1 1.456.409c.435.194.823.476 1.162.846.337.37.63.848.88 1.429l4.594 10.207h.08l5.262-12.853h1.523c.534 0 1.054-.004 1.562-.013a32.306 32.306 0 0 0 1.616-.066c.178 0 .302.063.373.186.071.123.107.255.107.397-.017.298-.09.466-.213.501a1.636 1.636 0 0 1-.455.054c-.426 0-.757.057-.987.171a1.12 1.12 0 0 0-.507.462 1.74 1.74 0 0 0-.201.662c-.027.247-.04.494-.04.742v10.498c0 .247.013.494.04.739.026.25.093.468.2.662.107.194.276.348.508.463.23.114.561.171.987.171.178 0 .33.02.455.054.124.036.196.203.213.503a.783.783 0 0 1-.107.396c-.07.123-.195.184-.373.184a37.053 37.053 0 0 0-1.63-.067 73.175 73.175 0 0 0-4.861.067c-.178 0-.301-.061-.374-.184a.787.787 0 0 1-.106-.396c.019-.3.084-.467.2-.503.116-.034.272-.053.467-.053.429 0 .758-.057.989-.172.232-.115.4-.27.507-.463.107-.194.173-.412.201-.662.026-.245.04-.492.04-.739V47.79h-.08l-5.502 13.46zM77.533 60.852c.57 0 1.083-.089 1.537-.266a3.644 3.644 0 0 0 1.148-.686c.312-.282.548-.605.708-.966.16-.36.24-.727.24-1.098 0-.721-.222-1.32-.666-1.799-.447-.476-1-.888-1.657-1.24a23.116 23.116 0 0 0-2.15-1.006 15.17 15.17 0 0 1-2.178-1.098 6.085 6.085 0 0 1-1.695-1.52c-.453-.6-.69-1.358-.707-2.275-.018-.828.115-1.541.4-2.14.284-.6.69-1.09 1.216-1.47.524-.377 1.144-.66 1.856-.846a9.168 9.168 0 0 1 2.298-.277c.585 0 1.183.062 1.788.185a5.775 5.775 0 0 1 1.63.581c.48.265.871.608 1.175 1.031.302.425.453.935.453 1.535 0 .635-.218 1.16-.654 1.574-.436.415-1.003.622-1.697.622-.462-.038-.786-.156-.974-.361-.187-.203-.28-.357-.28-.465 0-.036.067-.075.2-.12.134-.044.282-.12.44-.226.161-.105.309-.253.442-.44.133-.184.2-.439.2-.758 0-.674-.258-1.19-.775-1.555-.515-.363-1.156-.546-1.923-.546-.588 0-1.09.077-1.51.225-.418.152-.76.347-1.027.587a2.148 2.148 0 0 0-.587.838 2.665 2.665 0 0 0-.189.983c0 .654.18 1.186.535 1.593.357.407.891.804 1.602 1.196.801.422 1.616.811 2.445 1.164.827.352 1.584.758 2.27 1.215a6.106 6.106 0 0 1 1.684 1.666c.435.653.653 1.5.653 2.541 0 .668-.165 1.29-.494 1.863a4.782 4.782 0 0 1-1.335 1.48c-.56.416-1.225.742-1.99.98a8.163 8.163 0 0 1-2.432.356c-1.868 0-3.298-.317-4.286-.952-.988-.635-1.482-1.587-1.482-2.856 0-.635.219-1.16.654-1.573.436-.414 1.002-.622 1.697-.622.463.035.787.156.974.357.188.202.281.358.281.462 0 .037-.048.077-.148.12-.098.045-.209.118-.333.225a1.448 1.448 0 0 0-.335.435c-.097.185-.145.437-.145.756 0 .792.243 1.423.733 1.89.49.467 1.287.701 2.39.701zM93.227 54.955h5.61l-2.697-6.798h-.08l-2.833 6.798zm1.07-10.421c.55 0 1.036.041 1.454.121.419.078.793.215 1.122.409.33.194.627.476.896.847.266.368.523.847.773 1.428l4.489 10.948c.088.227.186.462.293.7.107.238.23.453.373.647.143.195.312.359.509.489.196.133.434.2.72.2.195 0 .351.019.468.054.116.035.181.202.2.502 0 .141-.04.271-.12.396a.4.4 0 0 1-.361.184 40.24 40.24 0 0 0-1.495-.067 73.852 73.852 0 0 0-4.755.067c-.178 0-.302-.06-.374-.184a.788.788 0 0 1-.107-.396c.019-.3.086-.467.201-.502.117-.035.271-.055.467-.055.428 0 .757-.04.989-.12.231-.08.378-.197.442-.354.061-.16.07-.367.025-.623a5.195 5.195 0 0 0-.28-.938l-.909-2.195h-6.596a108.694 108.694 0 0 0-.855 2.195 11.4 11.4 0 0 0-.294 1.083c-.053.264-.028.467.08.609.108.14.308.233.603.277.293.045.697.066 1.214.066.195 0 .35.02.467.055.115.035.18.202.2.502a.71.71 0 0 1-.12.396.397.397 0 0 1-.36.184 40.38 40.38 0 0 0-1.483-.067 86.783 86.783 0 0 0-1.428-.012h-.696c-.196 0-.386.005-.574.012-.187.01-.383.02-.587.029-.205.007-.45.021-.735.038-.177 0-.302-.06-.373-.184a.78.78 0 0 1-.108-.396c.018-.3.085-.467.202-.502.115-.035.27-.055.467-.055.355 0 .644-.056.868-.17.221-.115.41-.27.56-.464.151-.194.28-.413.387-.662l.32-.739 4.676-10.948c.123-.319.167-.573.131-.769a.837.837 0 0 0-.252-.476 1.307 1.307 0 0 0-.506-.276 4.716 4.716 0 0 0-.629-.145c-.267-.053-.445-.101-.534-.146-.09-.044-.135-.199-.135-.463 0-.3.102-.463.309-.489.204-.027.457-.041.76-.041zM116.481 45.672c-.375 0-.686.032-.935.093-.249.06-.442.175-.576.341-.132.169-.224.393-.28.673-.054.281-.079.642-.079 1.08v5.06h2.351c.907 0 1.624-.128 2.149-.383.524-.254.921-.565 1.188-.935.268-.37.441-.77.521-1.2.081-.428.12-.82.12-1.172 0-.42-.071-.847-.213-1.278a2.882 2.882 0 0 0-.722-1.147c-.338-.333-.792-.605-1.36-.816-.571-.21-1.292-.316-2.164-.316zm3.098 7.748c.676 1.06 1.361 2.122 2.055 3.188a19.894 19.894 0 0 0 2.404 3c.25.194.496.354.734.477.241.123.531.202.87.238.142.018.285.04.426.066.143.026.223.19.241.488a.768.768 0 0 1-.107.398c-.071.123-.197.183-.373.183a101.737 101.737 0 0 0-1.229-.063 8.973 8.973 0 0 0-.508-.015h-.667c-.749-.14-1.372-.39-1.87-.753-.498-.361-.988-.879-1.469-1.546-.499-.67-.96-1.346-1.389-2.023-.428-.68-.847-1.354-1.256-2.024a23.037 23.037 0 0 0-.347-.475 1.172 1.172 0 0 0-.373-.331 1.884 1.884 0 0 0-.534-.186 4.034 4.034 0 0 0-.8-.066h-.776v4.31c0 .247.012.492.04.741.027.245.095.468.201.66.106.195.274.348.506.463.232.116.561.173.989.173.178 0 .329.018.453.053.125.036.196.203.215.501a.786.786 0 0 1-.106.398c-.073.123-.199.183-.375.183a75.42 75.42 0 0 0-4.887-.063c-.501.006-1.033.03-1.604.063-.178 0-.302-.06-.374-.183a.777.777 0 0 1-.107-.398c.019-.298.085-.465.201-.5a1.65 1.65 0 0 1 .468-.054c.425 0 .756-.057.987-.173.233-.115.401-.268.508-.462.106-.193.174-.416.2-.661.027-.249.041-.494.041-.74V47.813c0-.247-.014-.492-.041-.74a1.753 1.753 0 0 0-.2-.662 1.186 1.186 0 0 0-.508-.475c-.231-.124-.562-.185-.987-.185-.197 0-.352-.02-.468-.054-.116-.035-.182-.202-.201-.502 0-.14.036-.273.107-.396.072-.123.196-.187.374-.187.571.035 1.108.058 1.616.067.508.01 1.03.013 1.564.013h4.592c1.086.02 2.013.155 2.777.412.767.254 1.395.58 1.885.977s.849.85 1.081 1.362c.23.51.347 1.03.347 1.56 0 .475-.099.939-.293 1.388a4.27 4.27 0 0 1-.856 1.257 6.059 6.059 0 0 1-1.362 1.044 7.129 7.129 0 0 1-1.815.727zM134.55 54.955h5.61l-2.697-6.798h-.081l-2.832 6.798zm1.069-10.421c.552 0 1.037.041 1.455.121.419.078.794.215 1.122.409.33.194.628.476.896.847.266.368.527.847.773 1.428l4.487 10.948c.09.227.188.462.296.7.106.238.23.453.373.647.142.195.31.359.507.489.196.133.436.2.721.2.195 0 .352.019.468.054.115.035.182.202.2.502a.73.73 0 0 1-.119.396.401.401 0 0 1-.362.184 40.001 40.001 0 0 0-1.496-.067 73.753 73.753 0 0 0-4.753.067c-.179 0-.304-.06-.375-.184a.782.782 0 0 1-.107-.396c.019-.3.084-.467.2-.502.117-.035.273-.055.468-.055.429 0 .756-.04.989-.12.23-.08.378-.197.441-.354.062-.16.071-.367.027-.623a5.21 5.21 0 0 0-.281-.938l-.909-2.195h-6.597a119.855 119.855 0 0 0-.854 2.195c-.143.459-.241.818-.294 1.083-.053.264-.028.467.081.609.107.14.306.233.601.277.293.045.698.066 1.215.066.195 0 .351.02.466.055.116.035.184.202.201.502 0 .141-.04.271-.12.396a.399.399 0 0 1-.361.184 40.295 40.295 0 0 0-1.481-.067 87.024 87.024 0 0 0-1.43-.012h-.695c-.196 0-.386.005-.574.012-.186.01-.382.02-.587.029-.205.007-.45.021-.736.038-.176 0-.302-.06-.372-.184a.772.772 0 0 1-.107-.396c.017-.3.084-.467.2-.502.116-.035.27-.055.467-.055.357 0 .645-.056.868-.17.223-.115.41-.27.561-.464.151-.194.28-.413.387-.662.106-.246.214-.492.322-.739l4.674-10.948c.123-.319.168-.573.131-.769a.83.83 0 0 0-.252-.476 1.294 1.294 0 0 0-.508-.276 4.59 4.59 0 0 0-.627-.145c-.267-.053-.445-.101-.535-.146-.089-.044-.134-.199-.134-.463 0-.3.103-.463.307-.489.205-.027.459-.041.762-.041zM77.328 34.084a12.587 12.587 0 0 1-6.922-2.126 12.403 12.403 0 0 1-4.568-5.571 12.263 12.263 0 0 1-.677-7.145 12.34 12.34 0 0 1 3.44-6.316 12.54 12.54 0 0 1 6.401-3.364 12.616 12.616 0 0 1 7.211.718c2.28.94 4.227 2.526 5.597 4.56a12.29 12.29 0 0 1 2.101 6.867 12.398 12.398 0 0 1-3.715 8.757 12.647 12.647 0 0 1-8.868 3.62zm0-25.902c-2.682 0-5.303.787-7.534 2.26a13.472 13.472 0 0 0-5.001 6.02 13.32 13.32 0 0 0-.787 7.756c.517 2.605 1.802 5 3.693 6.884a13.618 13.618 0 0 0 6.93 3.697c2.628.528 5.355.274 7.837-.731a13.55 13.55 0 0 0 6.11-4.915 13.328 13.328 0 0 0 1.319-12.615 13.432 13.432 0 0 0-2.938-4.39 13.585 13.585 0 0 0-4.414-2.935 13.694 13.694 0 0 0-5.215-1.03" fill="#fff"/>
    <path d="m83.266 22.567-1.923 3.292-.874 2.937-2.709.534-.262-3.649-1.136-3.737-1.922.356-3.845-.98-1.049-2.847 2.71-3.738 2.446-.979 3.058 1.78 3.845-.356.175 2.848 1.136 1.78 2.36-.356-2.01 3.115zM51.05 71.778h-.942l-4.065 8.895h1.032l1.057-2.334h4.855l1.045 2.334h1.084l-4.065-8.895zm1.543 5.665h-4.066l2.04-4.504 2.026 4.504zM65.833 71.84h-6.41v8.833h1.007v-3.848h4.83v-.909h-4.83v-3.154h5.403v-.921zM77.712 80.673l-2.74-3.609c1.402-.252 2.422-1.11 2.422-2.586 0-1.59-1.262-2.637-3.224-2.637h-3.836v8.832h1.007V77.24h2.549l2.586 3.432h1.236zm-1.338-6.157c0 1.148-.955 1.83-2.293 1.83h-2.74v-3.584h2.752c1.44 0 2.281.656 2.281 1.754zM82.18 71.84v8.833h1.007V71.84h-1.006zM95.994 79.272l-.662-.643c-.854.807-1.657 1.274-2.88 1.274-1.963 0-3.454-1.602-3.454-3.659 0-2.056 1.479-3.633 3.454-3.633 1.21 0 2.051.504 2.803 1.21l.688-.731c-.892-.833-1.86-1.4-3.478-1.4-2.626 0-4.511 2.056-4.511 4.58 0 2.548 1.898 4.554 4.472 4.554 1.619 0 2.638-.618 3.568-1.552zM104.548 71.778h-.943l-4.065 8.895h1.033l1.057-2.334h4.855l1.045 2.334h1.083l-4.065-8.895zm1.542 5.665h-4.065l2.039-4.504 2.026 4.504z" fill="#fff"/>
</svg>
