<svg width="16" height="16" viewBox="0 0 16 16" fill="none" xmlns="http://www.w3.org/2000/svg">
    <path d="m15.903 13.754.057-.098v-.109a.569.569 0 0 0 .04-.097 4.26 4.26 0 0 0-2.2-3.52 3.077 3.077 0 0 0 1.057-2.37 2.958 2.958 0 0 0-.806-2.102A2.946 2.946 0 0 0 12 4.536a2.946 2.946 0 0 0-2.05.922 2.958 2.958 0 0 0-.807 2.101c-.002.898.389 1.75 1.068 2.336-.34.185-.652.418-.925.693A5.242 5.242 0 0 0 7.224 8.87a3.804 3.804 0 0 0 1.548-3.086A3.714 3.714 0 0 0 7.741 3.14 3.699 3.699 0 0 0 5.144 2a3.7 3.7 0 0 0-2.592 1.135 3.715 3.715 0 0 0-1.036 2.638A3.804 3.804 0 0 0 3.065 8.87a5.34 5.34 0 0 0-3.063 4.678v.108l.057.098c.018.03.039.06.063.086.026.026.055.049.086.068a.366.366 0 0 0 .086.058L.408 14h15.146a.787.787 0 0 0 .11-.034.309.309 0 0 0 .09-.058.497.497 0 0 0 .086-.068.465.465 0 0 0 .063-.086zm-5.616-6.195A1.811 1.811 0 0 1 12 5.68a1.804 1.804 0 0 1 1.714 1.878A1.817 1.817 0 0 1 12 9.442a1.816 1.816 0 0 1-1.714-1.884zM12 10.588a2.92 2.92 0 0 1 2.765 2.29h-4.542a5.38 5.38 0 0 0-.36-1.254 2.774 2.774 0 0 1 2.137-1.037zM2.659 5.772a2.568 2.568 0 0 1 .701-1.828 2.557 2.557 0 0 1 1.785-.8c.677.02 1.318.308 1.784.8.466.493.718 1.15.7 1.828a2.568 2.568 0 0 1-.7 1.829 2.557 2.557 0 0 1-1.784.8 2.557 2.557 0 0 1-1.785-.8 2.568 2.568 0 0 1-.7-1.829zm-1.434 7.106a4.067 4.067 0 0 1 1.366-2.368 4.052 4.052 0 0 1 2.554-.965c.936.017 1.839.358 2.553.965a4.067 4.067 0 0 1 1.366 2.368H1.225z" fill="#393735"/>
    <circle cx="5" cy="6" r="3" fill="#393735"/>
    <ellipse cx="12" cy="7.5" rx="2" ry="2.5" fill="#393735"/>
</svg>
