<svg width="130" height="44" viewBox="0 0 130 44" fill="none" xmlns="http://www.w3.org/2000/svg">
    <path d="M10.886 21.275c.482 0 .916-.076 1.301-.227.384-.15.709-.346.972-.587.265-.241.464-.518.6-.826.136-.309.203-.622.203-.94 0-.617-.188-1.13-.564-1.539a5.381 5.381 0 0 0-1.403-1.061 19.649 19.649 0 0 0-1.821-.86 12.669 12.669 0 0 1-1.845-.94 5.144 5.144 0 0 1-1.436-1.3c-.385-.513-.585-1.162-.6-1.946-.015-.708.098-1.319.339-1.831a3.242 3.242 0 0 1 1.03-1.257 4.7 4.7 0 0 1 1.573-.725A7.687 7.687 0 0 1 11.18 7c.497 0 1.002.053 1.516.158.513.106.973.272 1.38.497.407.227.739.52.996.882.255.363.384.8.384 1.314 0 .543-.185.992-.555 1.345-.369.356-.848.533-1.436.533-.392-.033-.667-.133-.826-.31-.158-.173-.237-.305-.237-.396 0-.032.057-.065.169-.103.113-.038.238-.103.374-.193.135-.09.26-.217.373-.376.113-.159.169-.376.169-.65 0-.576-.218-1.018-.655-1.33-.438-.31-.98-.467-1.63-.467-.497 0-.923.066-1.278.193-.354.13-.644.297-.87.502a1.847 1.847 0 0 0-.498.716c-.106.273-.159.552-.159.841 0 .56.15 1.015.452 1.364.302.347.755.687 1.358 1.022.679.361 1.37.694 2.07.996.702.3 1.342.649 1.924 1.04a5.2 5.2 0 0 1 1.425 1.425c.37.558.554 1.283.554 2.174 0 .571-.14 1.103-.42 1.593-.278.49-.655.914-1.13 1.267a5.587 5.587 0 0 1-1.685.838 6.852 6.852 0 0 1-2.06.305c-1.583 0-2.793-.272-3.63-.815C6.418 20.822 6 20.008 6 18.922c0-.543.184-.992.553-1.346.37-.354.849-.532 1.437-.532.392.03.668.134.826.306.158.172.237.305.237.395 0 .031-.04.066-.124.103-.083.038-.177.1-.283.192-.106.09-.201.215-.283.372-.083.158-.124.374-.124.647 0 .677.206 1.217.622 1.616.415.4 1.09.6 2.025.6zM24.18 16.23h4.75l-2.285-5.815h-.068l-2.398 5.816zm.904-8.915c.468 0 .88.036 1.232.104.355.066.673.184.95.35.28.166.532.407.76.724.225.316.445.725.654 1.222l3.802 9.366c.076.194.158.396.249.599.09.204.196.387.316.553.12.167.264.307.43.418.166.115.37.171.611.171.165 0 .298.017.396.047.098.03.154.173.17.429a.623.623 0 0 1-.102.339.338.338 0 0 1-.306.158c-.483-.03-.905-.049-1.267-.058a61.84 61.84 0 0 0-4.026.058c-.15 0-.257-.052-.317-.158a.666.666 0 0 1-.09-.34c.014-.255.071-.399.17-.428.097-.03.228-.047.395-.047.362 0 .64-.034.837-.102.196-.069.321-.17.374-.304.052-.137.06-.313.022-.532a4.496 4.496 0 0 0-.238-.803l-.769-1.878H23.75a99.85 99.85 0 0 0-.724 1.878c-.12.393-.204.7-.248.927-.046.225-.024.4.068.52.09.12.259.2.508.238.249.038.592.056 1.03.056.166 0 .298.017.396.047.097.03.155.173.17.429a.616.616 0 0 1-.103.339c-.067.106-.169.158-.305.158-.483-.03-.9-.049-1.256-.058-.354-.005-.758-.01-1.21-.01h-.588c-.167 0-.328.005-.487.01-.158.01-.324.017-.497.025-.174.006-.381.018-.622.033-.151 0-.257-.052-.317-.158a.68.68 0 0 1-.09-.34c.014-.255.071-.399.169-.428.098-.03.229-.047.396-.047.302 0 .547-.049.735-.146a1.4 1.4 0 0 0 .475-.397c.13-.166.238-.353.328-.566l.272-.632 3.959-9.366c.105-.273.142-.49.112-.657a.713.713 0 0 0-.214-.408 1.084 1.084 0 0 0-.43-.236 3.91 3.91 0 0 0-.531-.124c-.227-.046-.378-.087-.453-.125-.076-.038-.113-.17-.113-.396 0-.256.086-.396.26-.418.174-.024.389-.036.645-.036zM47.178 21.614a.312.312 0 0 1-.18.17.693.693 0 0 1-.273.057.694.694 0 0 1-.27-.058.421.421 0 0 1-.205-.169L41.16 10.1h-.068l.045 8.981c0 .211.008.423.023.632.015.214.068.4.16.566a.96.96 0 0 0 .417.397c.188.098.464.146.826.146.166 0 .297.017.395.046.098.03.163.174.193.43a.614.614 0 0 1-.1.339.34.34 0 0 1-.307.158c-.242-.015-.44-.027-.6-.033l-.452-.025c-.145-.005-.29-.01-.441-.01h-1.165c-.174 0-.34.005-.499.01l-.508.025c-.181.006-.393.018-.634.033-.151 0-.256-.053-.316-.158a.666.666 0 0 1-.09-.34c.015-.255.07-.399.169-.429.098-.03.231-.046.396-.046.362 0 .636-.049.826-.146a.977.977 0 0 0 .418-.397 1.36 1.36 0 0 0 .158-.566c.015-.21.023-.421.023-.632l.045-8.981c0-.364-.031-.65-.09-.86a1.079 1.079 0 0 0-.283-.5 1.344 1.344 0 0 0-.475-.281 3.944 3.944 0 0 0-.667-.169 3.68 3.68 0 0 1-.442-.114c-.082-.03-.124-.166-.124-.407 0-.256.086-.396.26-.418a4.77 4.77 0 0 1 .645-.036c.557 0 1.063.036 1.516.104.452.067.862.184 1.233.35.37.166.697.407.984.723.286.317.535.726.746 1.223l3.891 8.732h.068l4.457-10.996h1.29c.452 0 .893-.003 1.323-.01.43-.007.886-.025 1.37-.057.15 0 .255.054.315.159.06.106.091.218.091.34-.015.255-.076.398-.181.429a1.374 1.374 0 0 1-.385.045c-.36 0-.64.05-.836.147a.953.953 0 0 0-.43.395c-.09.166-.148.357-.17.566a5.868 5.868 0 0 0-.034.635v8.981c0 .211.011.423.034.632.022.214.08.4.17.566.09.166.233.298.43.397.195.098.475.146.836.146.151 0 .279.017.385.046.105.03.166.174.181.43 0 .121-.03.232-.09.339-.06.105-.166.158-.317.158-.483-.03-.943-.05-1.38-.058a61.353 61.353 0 0 0-4.118.058c-.151 0-.255-.053-.317-.158a.679.679 0 0 1-.09-.34c.016-.255.071-.399.17-.429.098-.03.23-.046.395-.046.363 0 .642-.049.838-.146a.956.956 0 0 0 .43-.397c.09-.166.146-.352.17-.566.022-.21.033-.421.033-.632V10.1h-.068l-4.66 11.514zM65.674 21.275c.483 0 .917-.076 1.302-.227.383-.15.709-.346.972-.587.264-.241.464-.518.6-.826.136-.309.203-.622.203-.94 0-.617-.189-1.13-.565-1.539a5.405 5.405 0 0 0-1.403-1.061 19.467 19.467 0 0 0-1.821-.86 12.792 12.792 0 0 1-1.845-.94 5.17 5.17 0 0 1-1.436-1.3c-.384-.513-.584-1.162-.598-1.946-.016-.708.097-1.319.338-1.831.241-.514.585-.932 1.03-1.257.444-.323.97-.565 1.572-.725A7.695 7.695 0 0 1 65.97 7a7.51 7.51 0 0 1 1.514.158c.513.106.973.272 1.381.497.407.227.739.52.995.882.256.363.384.8.384 1.314 0 .543-.184.992-.554 1.345-.369.356-.85.533-1.437.533-.392-.033-.666-.133-.825-.31-.159-.173-.238-.305-.238-.396 0-.032.057-.065.17-.103a1.58 1.58 0 0 0 .373-.193c.136-.09.261-.217.374-.376.113-.159.17-.376.17-.65 0-.576-.22-1.018-.657-1.33-.436-.31-.98-.467-1.629-.467-.498 0-.924.066-1.278.193-.355.13-.645.297-.87.502a1.837 1.837 0 0 0-.498.716 2.3 2.3 0 0 0-.16.841c0 .56.152 1.015.453 1.364.302.347.755.687 1.357 1.022.679.361 1.37.694 2.071.996.7.3 1.342.649 1.923 1.04.58.394 1.055.868 1.426 1.425.37.558.554 1.283.554 2.174 0 .571-.14 1.103-.42 1.593-.278.49-.655.914-1.13 1.267a5.579 5.579 0 0 1-1.686.838 6.851 6.851 0 0 1-2.06.305c-1.582 0-2.793-.272-3.63-.815-.837-.543-1.255-1.357-1.255-2.443 0-.543.185-.992.554-1.346.37-.354.848-.532 1.437-.532.392.03.667.134.825.306.16.172.238.305.238.395 0 .031-.04.066-.125.103-.083.038-.177.1-.282.192-.106.09-.2.215-.284.372-.082.158-.123.374-.123.647 0 .677.206 1.217.621 1.616.415.4 1.09.6 2.025.6zM78.967 16.23h4.752l-2.284-5.815h-.069l-2.4 5.816zm.906-8.915c.467 0 .878.036 1.233.104.354.066.67.184.95.35.279.166.53.407.758.724.226.316.444.725.655 1.222l3.803 9.366c.074.194.157.396.247.599.091.204.196.387.317.553.121.167.264.307.43.418.167.115.369.171.611.171.165 0 .297.017.397.047.097.03.153.173.168.429a.62.62 0 0 1-.101.339.337.337 0 0 1-.306.158c-.483-.03-.905-.049-1.266-.058a61.928 61.928 0 0 0-4.027.058c-.152 0-.257-.052-.318-.158a.68.68 0 0 1-.09-.34c.016-.255.072-.399.17-.428.099-.03.23-.047.395-.047.363 0 .642-.034.838-.102.196-.069.32-.17.374-.304.052-.137.06-.313.022-.532a4.482 4.482 0 0 0-.237-.803l-.77-1.878h-5.588c-.361.92-.603 1.546-.724 1.878-.12.393-.204.7-.249.927-.044.225-.023.4.068.52.092.12.26.2.51.238.249.038.591.056 1.029.056.165 0 .297.017.395.047.098.03.154.173.17.429a.613.613 0 0 1-.102.339.335.335 0 0 1-.305.158c-.482-.03-.902-.049-1.256-.058-.354-.005-.758-.01-1.21-.01h-.589c-.166 0-.327.005-.486.01-.158.01-.324.017-.497.025-.174.006-.38.018-.623.033-.15 0-.256-.052-.316-.158a.672.672 0 0 1-.091-.34c.015-.255.072-.399.17-.428.098-.03.23-.047.396-.047.3 0 .546-.049.736-.146.187-.098.346-.23.474-.397.128-.166.237-.353.328-.566.09-.21.18-.421.272-.632l3.96-9.366c.104-.273.141-.49.111-.657a.719.719 0 0 0-.214-.408 1.103 1.103 0 0 0-.429-.236 3.955 3.955 0 0 0-.532-.124 2.154 2.154 0 0 1-.453-.125c-.076-.038-.114-.17-.114-.396 0-.256.087-.396.261-.418a4.93 4.93 0 0 1 .645-.036zM98.664 8.29a3.38 3.38 0 0 0-.792.078.867.867 0 0 0-.487.292c-.113.145-.19.336-.238.576-.045.24-.067.55-.067.923v4.33h1.991c.769 0 1.376-.11 1.821-.328.444-.218.78-.483 1.007-.8.226-.316.373-.658.441-1.026a5.54 5.54 0 0 0 .101-1.003c0-.36-.06-.725-.18-1.094a2.462 2.462 0 0 0-.612-.98c-.286-.285-.67-.518-1.152-.698-.483-.181-1.094-.27-1.833-.27zm2.624 6.627c.573.906 1.153 1.815 1.741 2.728a16.972 16.972 0 0 0 2.036 2.566c.212.166.42.303.623.408.204.106.449.173.736.203.12.016.241.035.361.057.121.022.189.163.204.418a.67.67 0 0 1-.09.34c-.061.105-.167.157-.317.157a83.266 83.266 0 0 0-1.041-.055 7.483 7.483 0 0 0-.43-.012h-.565c-.634-.12-1.162-.334-1.584-.644-.422-.31-.837-.752-1.244-1.323a27.62 27.62 0 0 1-1.177-1.73c-.362-.583-.717-1.159-1.063-1.732-.106-.15-.204-.285-.294-.406a.998.998 0 0 0-.317-.284 1.577 1.577 0 0 0-.452-.159 3.378 3.378 0 0 0-.678-.056h-.657v3.687c0 .211.01.421.034.634.023.21.08.4.17.565.09.166.233.297.429.396.196.098.476.147.838.147.15 0 .278.016.384.046.105.03.166.174.181.429 0 .122-.03.235-.09.34-.061.105-.168.157-.317.157a63.204 63.204 0 0 0-4.14-.055c-.424.006-.875.026-1.358.055-.15 0-.256-.052-.317-.157a.666.666 0 0 1-.09-.34c.015-.255.072-.399.17-.429.098-.03.23-.046.396-.046.36 0 .64-.049.836-.147a.958.958 0 0 0 .43-.396c.09-.165.148-.355.17-.565a5.78 5.78 0 0 0 .035-.634v-8.959c0-.21-.012-.42-.035-.633a1.5 1.5 0 0 0-.17-.566 1.012 1.012 0 0 0-.43-.406c-.195-.107-.475-.159-.836-.159-.167 0-.298-.016-.396-.045-.098-.03-.155-.173-.17-.43 0-.12.03-.233.09-.339.061-.105.167-.16.317-.16.483.03.938.05 1.37.057.429.008.871.011 1.323.011h3.89c.92.017 1.705.133 2.353.353.649.218 1.181.496 1.596.836a3.2 3.2 0 0 1 1.21 2.5c0 .406-.084.802-.249 1.187a3.662 3.662 0 0 1-.724 1.075c-.316.331-.701.63-1.154.893a6.012 6.012 0 0 1-1.538.622zM113.97 16.23h4.752l-2.286-5.815h-.068l-2.398 5.816zm.905-8.915c.468 0 .878.036 1.232.104.355.066.673.184.951.35.279.166.532.407.758.724.226.316.447.725.656 1.222l3.8 9.366c.077.194.16.396.25.599.09.204.196.387.317.553.12.167.263.307.43.418.166.115.369.171.61.171.165 0 .298.017.396.047.098.03.155.173.169.429a.63.63 0 0 1-.1.339.34.34 0 0 1-.307.158c-.482-.03-.904-.049-1.267-.058a61.853 61.853 0 0 0-4.026.058c-.151 0-.258-.052-.317-.158a.666.666 0 0 1-.091-.34c.016-.255.071-.399.169-.428.099-.03.231-.047.396-.047.364 0 .641-.034.838-.102.196-.069.321-.17.374-.304.052-.137.06-.313.023-.532a4.424 4.424 0 0 0-.239-.803l-.769-1.878h-5.588c-.36.92-.604 1.546-.724 1.878-.121.393-.204.7-.249.927-.045.225-.023.4.069.52.091.12.259.2.509.238.249.038.591.056 1.03.056.165 0 .297.017.394.047.098.03.156.173.17.429a.622.622 0 0 1-.101.339.338.338 0 0 1-.306.158c-.482-.03-.901-.049-1.255-.058-.354-.005-.759-.01-1.211-.01h-.589c-.166 0-.327.005-.486.01-.157.01-.323.017-.497.025-.174.006-.381.018-.623.033-.15 0-.256-.052-.316-.158a.675.675 0 0 1-.09-.34c.014-.255.071-.399.17-.428.097-.03.228-.047.395-.047.302 0 .546-.049.735-.146.189-.098.347-.23.475-.397a2.58 2.58 0 0 0 .328-.566l.273-.632 3.959-9.366c.104-.273.142-.49.111-.657a.713.713 0 0 0-.214-.408 1.085 1.085 0 0 0-.43-.236 3.83 3.83 0 0 0-.531-.124 2.162 2.162 0 0 1-.453-.125c-.075-.038-.113-.17-.113-.396 0-.256.087-.396.259-.418.174-.024.389-.036.646-.036zM43.242 30.622h-.799L39 38.232h.874l.896-1.997h4.113l.885 1.997h.917l-3.443-7.61zm1.306 4.847h-3.443l1.727-3.854 1.716 3.854zM55.763 30.676h-5.43v7.556h.854V34.94h4.09v-.777h-4.09v-2.699h4.576v-.788zM65.826 38.232l-2.321-3.087c1.187-.216 2.05-.95 2.05-2.213 0-1.36-1.068-2.256-2.73-2.256h-3.249v7.556h.853v-2.936h2.158l2.192 2.936h1.047zm-1.134-5.268c0 .983-.81 1.566-1.943 1.566h-2.32v-3.066h2.331c1.22 0 1.932.561 1.932 1.5zM69.61 30.676v7.556h.853v-7.556h-.852zM81.311 37.034l-.561-.55c-.723.69-1.403 1.09-2.44 1.09-1.662 0-2.925-1.371-2.925-3.13 0-1.76 1.252-3.11 2.925-3.11 1.026 0 1.738.432 2.375 1.037l.583-.626c-.756-.713-1.576-1.198-2.947-1.198-2.223 0-3.82 1.759-3.82 3.918 0 2.18 1.608 3.896 3.788 3.896 1.37 0 2.234-.529 3.022-1.327zM88.557 30.622h-.799l-3.443 7.61h.874l.896-1.997h4.112l.885 1.997H92l-3.443-7.61zm1.306 4.847H86.42l1.727-3.854 1.716 3.854z" fill="#F3EEE3"/>
</svg>
