<svg width="873" height="479" viewBox="0 0 873 479" fill="none" xmlns="http://www.w3.org/2000/svg">
    <path d="m40.192 623.498 13.996-12.593c9.829-8.844 23.46-12.678 36.462-10.258 11.66 2.171 21.826 9.781 27.194 20.357a35.188 35.188 0 0 0 19.144 17.091 93.206 93.206 0 0 0 43.332 5.195l40.44-4.795a47.088 47.088 0 0 0 22.771-9.146 49.747 49.747 0 0 1 19.451-8.936c12.944-2.834 24.56-9.456 33.575-19.16l35.221-37.874a25.437 25.437 0 0 0 6.156-11.599 28.507 28.507 0 0 1 14.329-18.732 86.303 86.303 0 0 0 29.44-25.917l7.551-10.608a409.939 409.939 0 0 0 9.772-14.362l17.202-26.471c5.098-7.842 6.83-17.571 4.754-26.694a35.006 35.006 0 0 0-7.099-14.441l-20.13-24.393a13.508 13.508 0 0 1 15.48-21.128l13.842 5.593c14.434 5.833 30.103 7.176 45.314 3.882a13.883 13.883 0 0 0 9.911-8.301 16.97 16.97 0 0 1 10.296-9.649 16.974 16.974 0 0 1 14.037 1.464 50.183 50.183 0 0 1 6.081 4.218l14.804 11.985a18.355 18.355 0 0 0 14.466 3.85 21.434 21.434 0 0 1 21.415 9.513l4.141 6.399a70.252 70.252 0 0 0 29.446 25.591 70.286 70.286 0 0 0 19.393 5.789l19.962 2.93c8.836 1.297 17.787-2.635 22.797-10.03a23.357 23.357 0 0 0 3.173-6.839 72.099 72.099 0 0 1 13.706-26.374l5.334-6.522a29.386 29.386 0 0 1 33.454-8.808 26.371 26.371 0 0 0 18.437.239l16.781-6.017a117.733 117.733 0 0 0 21.865-10.5c14.298-8.787 29.977-14.41 46.601-16.714a171.843 171.843 0 0 0 42.873-11.748l51.027-21.454 1.201 2.852-51.03 21.455a174.882 174.882 0 0 1-43.645 11.96c-16.198 2.245-31.474 7.724-45.406 16.285a120.748 120.748 0 0 1-22.441 10.776l-16.781 6.017a29.465 29.465 0 0 1-20.601-.266 26.31 26.31 0 0 0-29.94 7.882l-5.334 6.522a68.996 68.996 0 0 0-13.12 25.25 26.498 26.498 0 0 1-3.593 7.743c-5.674 8.361-15.804 12.821-25.806 11.352l-19.962-2.93a73.367 73.367 0 0 1-20.247-6.044 73.343 73.343 0 0 1-30.742-26.716l-4.141-6.4a18.338 18.338 0 0 0-18.322-8.138 21.452 21.452 0 0 1-16.907-4.5l-14.804-11.986a47.093 47.093 0 0 0-5.704-3.956 13.881 13.881 0 0 0-11.48-1.197 13.887 13.887 0 0 0-8.422 7.891 16.965 16.965 0 0 1-12.117 10.15c-15.82 3.426-32.116 2.03-47.129-4.037l-13.842-5.593a10.407 10.407 0 0 0-12.753 4.163 10.413 10.413 0 0 0 .817 12.127l20.13 24.392a38.107 38.107 0 0 1 7.731 15.725c2.261 9.934.374 20.529-5.175 29.067l-17.203 26.471a413.395 413.395 0 0 1-9.846 14.471l-7.55 10.608c-7.92 11.122-18.465 20.408-30.502 26.849a25.413 25.413 0 0 0-12.773 16.701 28.543 28.543 0 0 1-6.906 13.01l-35.22 37.873a67.584 67.584 0 0 1-35.181 20.076 46.679 46.679 0 0 0-18.249 8.384 50.178 50.178 0 0 1-24.267 9.748l-40.44 4.795a96.316 96.316 0 0 1-44.779-5.368 38.28 38.28 0 0 1-20.823-18.591c-4.935-9.723-14.281-16.719-25-18.716-12.063-2.244-24.71 1.313-33.827 9.518l-13.995 12.593-2.07-2.301z" fill="#393735"/>
    <path d="m9.93 593.082 22.525-17.561c22.754-17.738 52.952-23.768 80.782-16.131 16.626 4.563 30.122 16.241 37.027 32.039a21.87 21.87 0 0 0 7.248 8.975c5.491 3.954 12.634 5.14 19.108 3.171l5.14-1.563a62.29 62.29 0 0 0 19.072-9.618A65.982 65.982 0 0 1 227 580.751l12.063-2.427a54.418 54.418 0 0 0 27.827-14.912c10.796-10.796 16.603-25.737 15.931-40.994l-.191-4.33a21.79 21.79 0 0 1 4.753-14.571 21.868 21.868 0 0 1 12.674-7.74c27.799-5.649 51.991-21.608 68.126-44.932l.54-.781a18.448 18.448 0 0 0 2.876-14.183 18.408 18.408 0 0 0-6.619-10.696l-.575-.452a275.218 275.218 0 0 0-70.064-40.139 20.464 20.464 0 0 1-12.145-13.055 20.452 20.452 0 0 1 2.624-17.632 17.507 17.507 0 0 0 2.915-7.953 85.589 85.589 0 0 1 19.31-45.737l1.201-1.446c5.316-6.414 14.157-8.778 21.978-5.88a16.492 16.492 0 0 0 6.998.987l35.44-2.642a80.98 80.98 0 0 1 44.276 9.358c8.386 4.483 18.178 6.145 27.572 4.679a44.296 44.296 0 0 0 6.81-1.625l33.707-10.945a42.703 42.703 0 0 1 18.313-1.751c11.183 1.384 21.539 7.298 28.416 16.227a85.515 85.515 0 0 0 21.29 19.627 192.756 192.756 0 0 1 42.629 37.612l8.306 9.862a16.483 16.483 0 0 0 2.755 2.597c7.247 5.403 17.562 3.92 23.003-3.29a126.907 126.907 0 0 1 11.572-13.314l20.437-20.437c12.104-12.104 30.677-15.404 46.216-8.212a37.794 37.794 0 0 0 27.722 1.627 226.717 226.717 0 0 0 36.527-15.63l1.998-1.07a195.106 195.106 0 0 1 51.803-18.943 192.49 192.49 0 0 0 40.366-13.363l12.785-5.872 1.291 2.811-12.785 5.872a195.497 195.497 0 0 1-41.014 13.579 192.071 192.071 0 0 0-50.983 18.643l-1.998 1.07a229.699 229.699 0 0 1-37.027 15.844 40.88 40.88 0 0 1-29.983-1.759c-14.367-6.65-31.539-3.599-42.729 7.592L643.5 362.461a123.567 123.567 0 0 0-11.289 12.989c-6.46 8.575-18.716 10.325-27.323 3.908a19.636 19.636 0 0 1-3.274-3.085l-8.305-9.862a189.645 189.645 0 0 0-41.944-37.008 88.577 88.577 0 0 1-22.06-20.337c-6.374-8.277-15.977-13.76-26.344-15.043a39.607 39.607 0 0 0-16.978 1.623l-33.707 10.945a47.435 47.435 0 0 1-7.288 1.74c-10.054 1.568-20.533-.211-29.508-5.008a77.89 77.89 0 0 0-42.586-9.002l-35.441 2.643a19.557 19.557 0 0 1-8.304-1.172 16.61 16.61 0 0 0-18.522 4.956l-1.201 1.445a82.527 82.527 0 0 0-18.614 44.09 20.638 20.638 0 0 1-3.431 9.363 17.37 17.37 0 0 0-2.229 14.978 17.385 17.385 0 0 0 10.315 11.089 278.243 278.243 0 0 1 70.851 40.589l.575.452a21.51 21.51 0 0 1 7.736 12.5 21.553 21.553 0 0 1-3.361 16.571l-.54.781c-16.589 23.986-41.469 40.394-70.053 46.204a18.695 18.695 0 0 0-14.953 19.143l.191 4.331c.709 16.12-5.427 31.909-16.834 43.316a57.488 57.488 0 0 1-29.404 15.757l-12.063 2.427a62.892 62.892 0 0 0-24.934 11.094 65.393 65.393 0 0 1-20.017 10.094l-5.14 1.563c-7.391 2.248-15.547.894-21.816-3.62a24.967 24.967 0 0 1-8.276-10.247c-6.529-14.938-19.289-25.979-35.01-30.293-26.892-7.381-56.075-1.553-78.062 15.587l-22.524 17.561-1.903-2.441z" fill="#393735"/>
    <path d="M475.515 444.36a23.16 23.16 0 0 1 9.426-5.726c6.908-2.173 14.552-.956 20.446 3.254a58.836 58.836 0 0 0 18.162 8.739 379.658 379.658 0 0 0 67.134 12.656l27.689 2.666c24.121 2.323 47.77-4.8 66.59-20.057a32.51 32.51 0 0 0 8.055-9.637 35.722 35.722 0 0 1 24.078-17.787 33.498 33.498 0 0 0 3.747-1.009l61.799-20.542a34.73 34.73 0 0 0 10.742-5.829 37.964 37.964 0 0 1 24.962-8.262l19.994.685A79.674 79.674 0 0 0 872.595 377a81.75 81.75 0 0 1 32.83-6.813c9.26.005 18.515-1.102 27.51-3.292l28.253-6.876.733 3.006-28.252 6.877a119.294 119.294 0 0 1-28.244 3.379 78.685 78.685 0 0 0-31.596 6.557c-11.142 4.841-23.45 7.18-35.594 6.765l-19.995-.684a34.872 34.872 0 0 0-22.927 7.588 37.812 37.812 0 0 1-11.694 6.346l-61.8 20.543a36.445 36.445 0 0 1-4.094 1.101 32.635 32.635 0 0 0-21.996 16.25 35.709 35.709 0 0 1-8.817 10.549c-19.455 15.771-43.902 23.134-68.836 20.733l-27.688-2.666a382.704 382.704 0 0 1-67.684-12.76 61.883 61.883 0 0 1-19.114-9.197c-5.109-3.649-11.733-4.704-17.719-2.82-6.779 2.13-11.976 7.758-13.562 14.687-4.114 17.974-14.183 34.36-28.373 46.141l-9.504 7.894a18.01 18.01 0 0 0-5.228 7.226c-3.417 8.677.284 18.393 8.609 22.6a91.094 91.094 0 0 1 27.387 21.173c16.955 19.236 29.455 42.483 36.151 67.228l.22.812a86.082 86.082 0 0 0 34.571 48.599c5.079 3.463 11.932 3.146 16.666-.772a17.014 17.014 0 0 1 7.583-3.586l13.401-2.601a19.151 19.151 0 0 0 13.719-10.776 22.112 22.112 0 0 1 4.473-6.426l1.476-1.476a132.316 132.316 0 0 1 60.965-34.666c18.591-4.721 37.586-5.358 56.455-1.894l5.19.952a166.44 166.44 0 0 0 39.487 2.463 169.337 169.337 0 0 1 89.485 19.726l8.067 4.311a23.623 23.623 0 0 1 11.882 15.517 23.579 23.579 0 0 1-4.006 19.329 23.566 23.566 0 0 1-17.29 9.524l-16.653 1.201a415.778 415.778 0 0 1-40.973.924l-4.593-.124c-11.305-.305-21.062 7.903-22.698 19.092a22.384 22.384 0 0 0 3.037 14.873 93.485 93.485 0 0 0 38.099 34.984l29.697 14.818c14.953 7.461 27.116 19.144 35.174 33.784 7.114 12.925 4.005 29.098-7.398 38.456a30.768 30.768 0 0 1-4.582 3.113l-11.796 6.537c-13.243 7.341-22.903 19.381-27.198 33.903a57.183 57.183 0 0 0 .334 33.637l4.703 14.819-2.949.936-4.704-14.819a60.273 60.273 0 0 1-.351-35.451c4.525-15.303 14.704-27.993 28.664-35.731l11.796-6.538a27.63 27.63 0 0 0 4.12-2.798c10.248-8.41 13.046-22.952 6.651-34.573-7.754-14.087-19.457-25.328-33.844-32.507l-29.697-14.817a96.573 96.573 0 0 1-39.36-36.142 25.484 25.484 0 0 1-3.458-16.933c1.862-12.738 12.971-22.084 25.843-21.736l4.592.123c13.509.365 27.192.057 40.667-.916l16.654-1.202a20.474 20.474 0 0 0 15.022-8.275 20.48 20.48 0 0 0 3.482-16.795 20.524 20.524 0 0 0-10.325-13.484l-8.067-4.311a166.237 166.237 0 0 0-87.85-19.365 169.549 169.549 0 0 1-40.221-2.509l-5.19-.953c-18.429-3.383-36.979-2.76-55.136 1.85a129.224 129.224 0 0 0-59.539 33.856l-1.476 1.476a19.042 19.042 0 0 0-3.85 5.53 22.249 22.249 0 0 1-15.939 12.52l-13.401 2.602a13.915 13.915 0 0 0-6.2 2.931c-5.79 4.792-14.171 5.18-20.382.945a89.185 89.185 0 0 1-35.816-50.347l-.219-.812c-6.573-24.29-18.844-47.11-35.486-65.991a88.01 88.01 0 0 0-26.46-20.457c-9.761-4.932-14.101-16.323-10.095-26.497a21.066 21.066 0 0 1 6.131-8.47l9.504-7.894c13.66-11.346 23.37-27.137 27.334-44.453a23.217 23.217 0 0 1 6.222-11.221z" fill="#393735"/>
    <path d="M532.1 516.631a21.572 21.572 0 0 1 1.902-1.689 21.378 21.378 0 0 1 12.572-4.597l26.461-.907a415.737 415.737 0 0 1 22.333-.164l19.719.388a209.134 209.134 0 0 0 105.843-26.401 212.397 212.397 0 0 1 43.195-18.154l22.915-6.765a90.622 90.622 0 0 0 15.527-6.197 93.882 93.882 0 0 1 42.696-10.236l8.969.016a127.654 127.654 0 0 0 40.868-6.63c16.775-5.623 34.224-7.773 51.864-6.39l.885.07c3.895.304 7.842.671 11.732 1.087l78.259 8.381-.32 3.076-78.268-8.38c-3.86-.414-7.778-.777-11.644-1.08l-.885-.069c-17.223-1.35-34.26.749-50.638 6.239a130.739 130.739 0 0 1-41.857 6.79l-8.969-.016a90.772 90.772 0 0 0-41.283 9.898 93.874 93.874 0 0 1-16.059 6.409l-22.914 6.765a209.26 209.26 0 0 0-42.565 17.889 212.238 212.238 0 0 1-107.41 26.792l-19.72-.388a412.652 412.652 0 0 0-22.166.162l-26.461.908a18.298 18.298 0 0 0-10.764 3.936 18.461 18.461 0 0 0-6.995 13.388 18.452 18.452 0 0 0 5.369 14.124 90.748 90.748 0 0 1 17.79 25.174l3.783 7.932a23.358 23.358 0 0 0 11.821 11.389c7.43 3.21 16.149 2.3 22.753-2.376 13.442-9.517 29.116-16.09 45.327-19.007l39.938-7.185a418.03 418.03 0 0 1 16.822-2.671l.359-.049a296.435 296.435 0 0 1 88.641 1.159c27.518 4.527 53.692 13.937 77.795 27.97a116.148 116.148 0 0 1 55.814 79.26c2.536 13.667.297 27.928-6.304 40.157a39.005 39.005 0 0 0 1.628 39.81 41.982 41.982 0 0 1 5.911 14.307l6.537 31.128a283.301 283.301 0 0 1 5.53 41.231l-3.088.183a280.313 280.313 0 0 0-5.47-40.779l-6.537-31.128a38.894 38.894 0 0 0-5.477-13.256 42.096 42.096 0 0 1-1.757-42.966 58.181 58.181 0 0 0 5.985-38.124 113.06 113.06 0 0 0-54.327-77.149c-23.777-13.843-49.596-23.126-76.742-27.59a293.317 293.317 0 0 0-87.716-1.147l-.358.049a412.12 412.12 0 0 0-16.697 2.651l-39.938 7.185c-15.768 2.837-31.013 9.23-44.088 18.487-7.479 5.295-17.353 6.326-25.768 2.69a26.452 26.452 0 0 1-13.387-12.898l-3.783-7.932a87.68 87.68 0 0 0-17.185-24.317 21.547 21.547 0 0 1-6.27-16.496 21.54 21.54 0 0 1 6.267-13.947z" fill="#393735"/>
</svg>
